<svg width="40" height="43" viewBox="0 0 40 43" fill="none" xmlns="http://www.w3.org/2000/svg">
<circle cx="20" cy="20" r="20" fill="#38A8F9"/>
<path d="M12 25.5001C12 27.1569 13.3432 28.5001 15 28.5001C15 29.8808 16.1193 31.0001 17.5 31.0001C18.8807 31.0001 20 29.8808 20 28.5001C20 29.8808 21.1193 31 22.5 31C23.8807 31 25 29.8807 25 28.5C26.6569 28.5 28 27.1568 28 25.5C28 24.9313 27.8418 24.3996 27.567 23.9465C28.9527 23.6814 30 22.463 30 21C30 19.5369 28.9527 18.3186 27.567 18.0535C27.8418 17.6004 28 17.0687 28 16.5C28 14.8431 26.6569 13.5 25 13.5C25 12.1193 23.8807 11 22.5 11C21.1193 11 20 12.1194 20 13.5001C20 12.1194 18.8807 11.0001 17.5 11.0001C16.1193 11.0001 15 12.1194 15 13.5001C13.3432 13.5001 12 14.8432 12 16.5001C12 17.0687 12.1582 17.6005 12.433 18.0536C11.0473 18.3186 10 19.537 10 21.0001C10 22.4631 11.0473 23.6815 12.433 23.9466C12.1582 24.3997 12 24.9314 12 25.5001Z" stroke="white" stroke-width="1.5" stroke-linecap="round" stroke-linejoin="round"/>
<path d="M15.5 23.5L17.3419 17.9743C17.4363 17.6911 17.7014 17.5 18 17.5C18.2986 17.5 18.5637 17.6911 18.6581 17.9743L20.5 23.5M23.5 17.5V23.5M16.5 21.5H19.5" stroke="white" stroke-width="1.5" stroke-linecap="round" stroke-linejoin="round"/>
</svg>
