<svg width="48" height="48" viewBox="0 0 48 48" fill="none" xmlns="http://www.w3.org/2000/svg">
<circle cx="24" cy="24" r="24" fill="#F58D30"/>
<circle cx="24" cy="24" r="23.5" stroke="white" stroke-opacity="0.2"/>
<path d="M23.9998 37.3337C31.3636 37.3337 37.3332 31.3641 37.3332 24.0003C37.3332 16.6365 31.3636 10.667 23.9998 10.667C16.636 10.667 10.6665 16.6365 10.6665 24.0003C10.6665 31.3641 16.636 37.3337 23.9998 37.3337Z" stroke="white" stroke-width="1.5"/>
<path d="M24 32C28.4183 32 32 28.4183 32 24C32 19.5817 28.4183 16 24 16C19.5817 16 16 19.5817 16 24C16 28.4183 19.5817 32 24 32Z" stroke="white" stroke-width="1.5"/>
<path d="M28.1668 21.1357L22.4377 26.8649L19.8335 24.2607" stroke="white" stroke-width="1.5625" stroke-linecap="round" stroke-linejoin="round"/>
<path d="M23.9998 10.667V16.0003M23.9998 32.0003V37.3337M10.6665 24.0003H15.9998M31.9998 24.0003H37.3332" stroke="white" stroke-width="1.5"/>
</svg>
