<svg width="48" height="48" viewBox="0 0 48 48" fill="none" xmlns="http://www.w3.org/2000/svg">
<circle cx="24" cy="24" r="24" fill="#F93838"/>
<g clip-path="url(#clip0_344_1224)">
<path d="M32.4235 29.7136L27 22.2561V15H28.5V13.5H19.5V15H21V22.2561L15.5764 29.7136C15.2494 30.1633 15.0532 30.6946 15.0094 31.2488C14.9656 31.803 15.0759 32.3585 15.3282 32.8539C15.5805 33.3493 15.9649 33.7653 16.4389 34.0558C16.9129 34.3463 17.458 34.5 18.0139 34.5H29.986C30.542 34.5 31.0871 34.3463 31.5611 34.0558C32.0351 33.7653 32.4195 33.3493 32.6718 32.8539C32.9241 32.3585 33.0344 31.803 32.9906 31.2488C32.9468 30.6946 32.7505 30.1633 32.4235 29.7136ZM22.5 22.7439V15H25.5V22.7439L27.5046 25.5H20.4954L22.5 22.7439ZM29.986 33H18.0139C17.7347 32.9999 17.4609 32.9226 17.2228 32.7766C16.9848 32.6307 16.7917 32.4217 16.665 32.1729C16.5382 31.9241 16.4828 31.645 16.5047 31.3666C16.5266 31.0882 16.6251 30.8213 16.7893 30.5954L19.4044 27H28.5955L31.2107 30.5954C31.3749 30.8213 31.4734 31.0882 31.4953 31.3666C31.5172 31.645 31.4618 31.9241 31.335 32.1729C31.2083 32.4217 31.0152 32.6307 30.7772 32.7766C30.5391 32.9226 30.2653 32.9999 29.986 33Z" fill="white"/>
</g>
<defs>
<clipPath id="clip0_344_1224">
<rect width="24" height="24" fill="white" transform="translate(12 12)"/>
</clipPath>
</defs>
</svg>
