<svg width="40" height="43" viewBox="0 0 40 43" fill="none" xmlns="http://www.w3.org/2000/svg">
<circle cx="20" cy="20" r="20" fill="#6A43D9"/>
<path d="M29.2386 15.7896L31.8492 13.179C31.9761 13.052 32.0269 12.8743 31.9863 12.7016C31.9457 12.5289 31.8187 12.3917 31.6511 12.3359L28.6596 11.3404L27.6641 8.3489C27.6083 8.1813 27.4711 8.05432 27.2984 8.01371C27.1258 7.97309 26.948 8.02387 26.821 8.15084L24.2104 10.7614C22.8899 10.1519 21.4729 9.84212 20 9.84212C14.3981 9.84212 9.84213 14.3981 9.84213 20C9.84213 21.478 10.1519 22.8899 10.7614 24.2104L8.15085 26.821C8.02388 26.948 7.97308 27.1257 8.01372 27.2984C8.05435 27.4711 8.18132 27.6082 8.34891 27.6641L11.3404 28.6596L12.3359 31.6511C12.3917 31.8187 12.5289 31.9457 12.7016 31.9863C12.7422 31.9964 12.7777 32.0015 12.8184 32.0015C12.9504 32.0015 13.0825 31.9507 13.179 31.8542L15.7896 29.2437C17.1101 29.8531 18.5271 30.1629 20 30.1629C25.6019 30.1629 30.1579 25.607 30.1579 20.005C30.1579 18.5271 29.848 17.1151 29.2386 15.7946L29.2386 15.7896ZM10.8578 20C10.8578 14.9616 14.9616 10.8579 19.9999 10.8579C21.1986 10.8579 22.3515 11.0864 23.4383 11.5333L21.8334 13.1383C21.2341 12.9758 20.6195 12.8945 19.9948 12.8945C16.074 12.8945 12.8843 16.0841 12.8843 20.005C12.8843 20.6247 12.9706 21.2443 13.1281 21.8436L11.5231 23.4485C11.0762 22.3616 10.8477 21.2087 10.8477 20.0101L10.8578 20ZM13.0367 30.5541L12.219 28.101C12.1682 27.9486 12.0514 27.8318 11.899 27.781L9.44587 26.9633L15.7337 20.6755C15.9318 20.4774 15.9318 20.1574 15.7337 19.9593C15.5356 19.7613 15.2156 19.7613 15.0176 19.9593L13.9865 20.9904C13.9357 20.6653 13.9053 20.3352 13.9053 20.0051C13.9053 16.6427 16.6377 13.9103 20 13.9103C20.3301 13.9103 20.6603 13.9408 20.9853 13.9916L16.3481 18.6288C16.15 18.8269 16.15 19.1469 16.3481 19.3449C16.4497 19.4465 16.5767 19.4922 16.7087 19.4922C16.8408 19.4922 16.9677 19.4414 17.0693 19.3449L26.9633 9.45097L27.781 11.9041C27.8318 12.0565 27.9486 12.1733 28.101 12.2241L30.5541 13.0418L24.9671 18.6288C24.769 18.8269 24.769 19.1469 24.9671 19.3449C25.1652 19.543 25.4852 19.543 25.6832 19.3449L26.0134 19.0148C26.0641 19.3398 26.0946 19.67 26.0946 20.0001C26.0946 23.3624 23.3622 26.0948 19.9999 26.0948C19.6698 26.0948 19.3396 26.0644 19.0146 26.0136L24.5151 20.513C24.7132 20.3149 24.7132 19.995 24.5151 19.7969C24.317 19.5989 23.997 19.5988 23.799 19.7969L13.0417 30.5542L13.0367 30.5541ZM20 29.1421C18.8013 29.1421 17.6484 28.9136 16.5616 28.4666L18.1665 26.8617C18.7658 27.0242 19.3804 27.1055 20.0051 27.1055C23.9259 27.1055 27.1156 23.9159 27.1156 19.995C27.1156 19.3753 27.0293 18.7557 26.8718 18.1564L28.4768 16.5514C28.9237 17.6384 29.1523 18.7913 29.1523 19.9899C29.1523 25.0282 25.0485 29.132 20.0101 29.132L20 29.1421ZM18.9232 18.9231C18.329 19.5174 18.329 20.4824 18.9232 21.0766C19.2178 21.3712 19.6089 21.5236 20 21.5236C20.391 21.5236 20.7821 21.3763 21.0767 21.0766C21.6709 20.4824 21.6709 19.5174 21.0767 18.9231C20.4825 18.3289 19.5175 18.3289 18.9232 18.9231ZM20.3606 20.3605C20.1625 20.5586 19.8425 20.5586 19.6445 20.3605C19.4464 20.1624 19.4464 19.8424 19.6445 19.6444C19.746 19.5428 19.873 19.4971 20.0051 19.4971C20.1371 19.4971 20.2641 19.5479 20.3657 19.6444C20.5638 19.8424 20.5638 20.1624 20.3657 20.3605H20.3606ZM18.2019 21.7979C18.4 21.996 18.4 22.316 18.2019 22.514C18.0039 22.7121 17.6839 22.7121 17.4858 22.514C17.2878 22.3159 17.2877 21.996 17.4858 21.7979C17.6839 21.5998 18.0039 21.5998 18.2019 21.7979ZM22.5141 17.4857C22.7122 17.6838 22.7122 18.0038 22.5141 18.2019C22.316 18.3999 21.996 18.4 21.798 18.2019C21.5999 18.0038 21.5999 17.6838 21.798 17.4857C21.9961 17.2877 22.316 17.2877 22.5141 17.4857Z" fill="white"/>
</svg>
