<svg width="222" height="167" viewBox="0 0 222 167" fill="none" xmlns="http://www.w3.org/2000/svg">
<g opacity="0.1">
<path d="M133.673 0.830505C131.452 1.94244 125.558 8.52847 104.886 33.162C99.5897 39.4914 88.6557 52.5779 80.5406 62.1576C24.6747 128.702 5.54017 152.053 3.57547 156.073C2.46499 158.553 1.01281 163.001 0.500283 165.995C-1.97695 179.338 4.94222 193.793 16.9013 200.379C23.9913 204.228 30.3979 204.228 53.1202 200.464C69.5212 197.727 105.825 191.312 111.463 190.029C114.026 189.516 114.026 190.115 109.499 209.531C102.836 238.527 101.981 245.626 104.459 253.751C106.765 261.791 113.77 267.009 125.302 269.404C129.829 270.259 131.537 270.259 137.688 268.976C151.355 266.154 173.138 255.034 173.138 250.843C173.138 250.33 174.078 248.962 175.273 247.85C176.469 246.738 177.409 245.626 177.409 245.369C177.409 245.113 172.882 244.856 167.329 244.856C158.275 244.856 156.993 244.685 153.576 242.718C148.707 239.981 146.572 236.987 146.059 232.368C145.547 228.091 147.938 213.722 152.124 195.675L155.028 183.272L164.681 183.443C169.977 183.529 177.238 184.213 180.74 185.068C186.122 186.266 187.745 187.036 190.393 189.687C193.298 192.51 193.639 193.365 193.639 197.214C193.639 203.116 189.966 217.143 186.378 224.499C184.755 227.92 183.645 230.743 183.816 230.743C185.78 230.743 195.775 222.788 203.121 215.433C216.959 201.491 221.999 191.911 221.999 179.423C222.085 163.514 214.738 154.362 197.91 149.487C192.87 147.947 188.428 147.519 177.665 147.177C164.937 146.75 163.742 146.579 163.742 145.21C163.742 144.355 164.767 139.052 165.962 133.492C167.158 127.932 170.404 112.451 173.138 99.0223C175.957 85.5936 179.972 66.5198 182.107 56.6835C189.368 23.7533 189.454 22.6414 187.062 15.6277C185.268 10.1536 179.203 3.99524 173.565 1.94244C170.063 0.659454 166.219 0.317322 152.637 0.06073C140.592 -0.110352 135.381 0.06073 133.673 0.830505ZM144.607 51.7226C141.959 60.447 134.1 94.7457 131.367 109.286C127.266 131.525 122.995 151.368 122.056 152.138C121.201 152.908 79.9426 161.119 68.9232 162.744C57.4767 164.369 55.3411 164.369 54.6578 162.744C53.7181 160.264 59.5268 150.77 69.5212 138.282C81.8219 123.143 112.83 85.337 116.332 81.317C117.785 79.6919 123.935 72.0794 130 64.3815C138.457 53.7754 141.617 50.3541 143.069 50.3541C144.607 50.2685 144.949 50.6107 144.607 51.7226Z" fill="#9B9B9B"/>
</g>
</svg>
