<svg width="24" height="24" viewBox="0 0 24 24" fill="none" xmlns="http://www.w3.org/2000/svg">
<path d="M5.5822 18.4932L4.29982 10.7989C4.11562 9.69375 4.56265 8.57801 5.45901 7.90575L10.2 4.35C11.2667 3.55 12.7333 3.55 13.8 4.35L18.541 7.90575C19.4373 8.57801 19.8844 9.69375 19.7002 10.7989L18.4178 18.4932C18.1767 19.9398 16.9251 21 15.4586 21H8.54138C7.07486 21 5.82329 19.9398 5.5822 18.4932Z" fill="#CF0786"/>
<path d="M22 10.5L13.2 3.9C12.4889 3.36667 11.5111 3.36667 10.8 3.9L2 10.5" stroke="#CF0786" stroke-width="1.5" stroke-linecap="round"/>
<path d="M15 15C14.1388 15.6319 13.0994 16 11.9962 16C10.893 16 9.86111 15.6319 9 15" stroke="#F1F3FC" stroke-width="1.5" stroke-linecap="round" stroke-linejoin="round"/>
</svg>
