<svg width="20" height="20" viewBox="0 0 20 20" fill="none" xmlns="http://www.w3.org/2000/svg">
<g clip-path="url(#clip0_998_1132)">
<path d="M9.99984 18.3334C14.6022 18.3334 18.3332 14.6025 18.3332 10.0001C18.3332 5.39771 14.6022 1.66675 9.99984 1.66675C5.39746 1.66675 1.6665 5.39771 1.6665 10.0001C1.6665 14.6025 5.39746 18.3334 9.99984 18.3334Z" stroke="white" stroke-width="1.66667" stroke-linecap="round" stroke-linejoin="round"/>
<path d="M7.57471 7.49999C7.77063 6.94304 8.15733 6.47341 8.66634 6.17426C9.17534 5.87512 9.77379 5.76577 10.3557 5.86558C10.9376 5.96539 11.4654 6.26792 11.8456 6.71959C12.2258 7.17126 12.4339 7.74292 12.433 8.33332C12.433 9.99999 9.93304 10.8333 9.93304 10.8333" stroke="white" stroke-width="1.66667" stroke-linecap="round" stroke-linejoin="round"/>
<path d="M10 14.1667H10.0083" stroke="white" stroke-width="1.66667" stroke-linecap="round" stroke-linejoin="round"/>
</g>
<defs>
<clipPath id="clip0_998_1132">
<rect width="20" height="20" fill="white"/>
</clipPath>
</defs>
</svg>
