<svg width="48" height="48" viewBox="0 0 48 48" fill="none" xmlns="http://www.w3.org/2000/svg">
<circle cx="24" cy="24" r="24" fill="#61D943"/>
<g clip-path="url(#clip0_344_1241)">
<path d="M24.8277 28.4531C24.3705 28.4531 24 28.8235 24 29.2807C24 29.7378 24.3705 30.1085 24.8277 30.1085H31.1724C31.6295 30.1085 32.0001 29.7381 32.0001 29.2807C32.0001 28.8236 31.6296 28.4531 31.1724 28.4531H24.8277Z" fill="white"/>
<path d="M16 21.0057C16 21.4628 16.3705 21.8332 16.8277 21.8332H19.0346V24.0403C19.0346 24.4973 19.405 24.8679 19.8622 24.8679C20.3193 24.8679 20.6898 24.4975 20.6898 24.0403V21.8332H23.1726C23.6298 21.8332 24.0002 21.4628 24.0002 21.0057C24.0002 20.5485 23.6298 20.178 23.1726 20.178H20.6897V17.4194C20.6897 16.9622 20.3192 16.5918 19.862 16.5918C19.4049 16.5918 19.0345 16.9622 19.0345 17.4194V20.178H16.8276C16.3705 20.1781 16 20.5486 16 21.0057Z" fill="white"/>
<path d="M30.8831 17.9554C30.5599 17.6321 30.036 17.6321 29.7127 17.9554L17.672 29.9965C17.3489 30.3197 17.3489 30.8436 17.672 31.1667C17.8334 31.3285 18.0455 31.4094 18.2571 31.4094C18.4686 31.4094 18.6808 31.3285 18.8424 31.1667L30.8831 19.126C31.2064 18.803 31.2064 18.2784 30.8831 17.9554Z" fill="white"/>
</g>
<defs>
<clipPath id="clip0_344_1241">
<rect width="16" height="16" fill="white" transform="translate(16 16)"/>
</clipPath>
</defs>
</svg>
