<svg width="32" height="32" viewBox="0 0 32 32" fill="none" xmlns="http://www.w3.org/2000/svg">
<circle cx="16" cy="16" r="16" fill="white" fill-opacity="0.08"/>
<path d="M20.3763 13.2505C20.3763 12.2558 19.9812 11.3019 19.2778 10.5985C18.5744 9.89514 17.6205 9.5 16.6258 9.5C15.6311 9.5 14.6771 9.89514 13.9738 10.5985C13.2704 11.3019 12.8753 12.2558 12.8753 13.2505C12.8753 17.6261 11 18.8763 11 18.8763H22.2516C22.2516 18.8763 20.3763 17.6261 20.3763 13.2505Z" stroke="white" stroke-width="1.50021" stroke-linecap="round" stroke-linejoin="round"/>
<path d="M17.7077 21.377C17.5978 21.5664 17.4401 21.7237 17.2503 21.833C17.0605 21.9423 16.8453 21.9998 16.6263 21.9998C16.4073 21.9998 16.1921 21.9423 16.0023 21.833C15.8126 21.7237 15.6548 21.5664 15.5449 21.377" stroke="white" stroke-width="1.50021" stroke-linecap="round" stroke-linejoin="round"/>
<circle cx="25" cy="4" r="3.33333" fill="#FFB600" stroke="#01227C" stroke-width="1.33333"/>
</svg>
