<svg width="48" height="48" viewBox="0 0 48 48" fill="none" xmlns="http://www.w3.org/2000/svg">
<circle cx="24" cy="24" r="24" fill="#DF3DA1"/>
<path fill-rule="evenodd" clip-rule="evenodd" d="M32.3541 15.6459C30.5085 13.8004 25.2722 16.0446 20.6584 20.6584C16.0446 25.2722 13.8004 30.5085 15.6459 32.3541C17.4915 34.1996 22.7278 31.9555 27.3416 27.3416C31.9555 22.7278 34.1996 17.4915 32.3541 15.6459Z" stroke="white" stroke-width="1.72881" stroke-linecap="round" stroke-linejoin="round"/>
<path fill-rule="evenodd" clip-rule="evenodd" d="M15.6459 15.6459C13.8004 17.4915 16.0446 22.7278 20.6584 27.3416C25.2722 31.9555 30.5085 34.1996 32.3541 32.3541C34.1996 30.5085 31.9555 25.2722 27.3416 20.6584C22.7278 16.0446 17.4915 13.8004 15.6459 15.6459Z" stroke="white" stroke-width="1.72881" stroke-linecap="round" stroke-linejoin="round"/>
<path d="M24.009 24H24" stroke="white" stroke-width="1.72881" stroke-linecap="round" stroke-linejoin="round"/>
</svg>
