<svg width="32" height="32" viewBox="0 0 32 32" fill="none" xmlns="http://www.w3.org/2000/svg">
<circle cx="16" cy="16" r="16" fill="white" fill-opacity="0.1"/>
<circle cx="16" cy="16" r="15.5" stroke="white" stroke-opacity="0.2"/>
<g clip-path="url(#clip0_409_1791)">
<path d="M18.9088 18.9091L15.9997 16L13.0906 18.9091" stroke="white" stroke-width="1.45455" stroke-linecap="round" stroke-linejoin="round"/>
<path d="M15.9998 16V22.5455" stroke="white" stroke-width="1.45455" stroke-linecap="round" stroke-linejoin="round"/>
<path d="M22.1015 20.6472C22.8109 20.2605 23.3712 19.6486 23.6942 18.9081C24.0171 18.1675 24.0842 17.3405 23.885 16.5576C23.6857 15.7746 23.2314 15.0803 22.5937 14.5843C21.956 14.0882 21.1713 13.8187 20.3634 13.8181H19.447C19.2269 12.9667 18.8166 12.1762 18.247 11.5061C17.6774 10.8361 16.9633 10.3039 16.1583 9.9495C15.3534 9.59514 14.4787 9.42786 13.5998 9.46024C12.721 9.49263 11.8609 9.72382 11.0842 10.1365C10.3076 10.5491 9.63457 11.1324 9.11582 11.8426C8.59706 12.5527 8.24605 13.3713 8.08917 14.2366C7.93229 15.102 7.97362 15.9916 8.21006 16.8387C8.44651 17.6858 8.8719 18.4682 9.45427 19.1272" stroke="white" stroke-width="1.45455" stroke-linecap="round" stroke-linejoin="round"/>
<path d="M18.9088 18.9091L15.9997 16L13.0906 18.9091" stroke="white" stroke-width="1.45455" stroke-linecap="round" stroke-linejoin="round"/>
</g>
<defs>
<clipPath id="clip0_409_1791">
<rect width="17.4545" height="17.4545" fill="white" transform="translate(7.27271 7.27271)"/>
</clipPath>
</defs>
</svg>
