<?xml version="1.0" encoding="UTF-8"?>
<svg version="1.1" xmlns="http://www.w3.org/2000/svg" width="64" height="64">
<path d="M0 0 C3.69230769 0.69230769 3.69230769 0.69230769 5 2 C5.15582303 3.34015221 5.25044142 4.68758903 5.31640625 6.03515625 C5.35830078 6.84404297 5.40019531 7.65292969 5.44335938 8.48632812 C5.48267578 9.33646484 5.52199219 10.18660156 5.5625 11.0625 C5.60568359 11.91650391 5.64886719 12.77050781 5.69335938 13.65039062 C5.79976702 15.76672037 5.90041731 17.88333813 6 20 C8.90225551 21.45112776 11.44911234 21.12985159 14.6875 21.1328125 C15.34580811 21.13376923 16.00411621 21.13472595 16.68237305 21.13571167 C18.07438248 21.13639225 19.4663951 21.13454646 20.85839844 21.13037109 C22.99160883 21.12502104 25.12460867 21.13032012 27.2578125 21.13671875 C28.60937547 21.13605795 29.9609383 21.13477674 31.3125 21.1328125 C32.54613281 21.13168457 33.77976563 21.13055664 35.05078125 21.12939453 C37.93225331 21.20369803 37.93225331 21.20369803 40 20 C40.04898438 18.72382812 40.09796875 17.44765625 40.1484375 16.1328125 C40.22346191 14.46351928 40.29900988 12.79424954 40.375 11.125 C40.42140625 9.86236328 40.42140625 9.86236328 40.46875 8.57421875 C40.50742187 7.76855469 40.54609375 6.96289062 40.5859375 6.1328125 C40.6173584 5.38918457 40.6487793 4.64555664 40.68115234 3.87939453 C41 2 41 2 43 0 C45.125 0.375 45.125 0.375 47 1 C47.11627503 4.58305992 47.1872736 8.16563417 47.25 11.75 C47.30027344 13.27367187 47.30027344 13.27367187 47.3515625 14.828125 C47.45080252 22.37036672 47.45080252 22.37036672 45.109375 25.640625 C41.08240402 28.23578408 37.78925281 28.17698335 33.10546875 28.203125 C32.3210994 28.20882507 31.53673004 28.21452515 30.72859192 28.22039795 C29.06671499 28.2298514 27.40481928 28.2363833 25.74291992 28.24023438 C23.20783462 28.24992229 20.67356621 28.28093404 18.13867188 28.3125 C16.52344231 28.31903197 14.90820695 28.32428168 13.29296875 28.328125 C12.53759323 28.3404718 11.78221771 28.3528186 11.00395203 28.36553955 C6.49056215 28.3465665 3.5798436 27.80983305 0 25 C-1.24497833 22.51004335 -1.12934372 20.81005089 -1.1328125 18.02734375 C-1.13410156 17.04572266 -1.13539063 16.06410156 -1.13671875 15.05273438 C-1.13285156 14.02470703 -1.12898437 12.99667969 -1.125 11.9375 C-1.12886719 10.90560547 -1.13273438 9.87371094 -1.13671875 8.81054688 C-1.13542969 7.83021484 -1.13414062 6.84988281 -1.1328125 5.83984375 C-1.13112061 4.48427368 -1.13112061 4.48427368 -1.12939453 3.10131836 C-1 1 -1 1 0 0 Z " fill="#A5C0D8" transform="translate(9,34)"/>
<path d="M0 0 C4.06594407 1.7818402 6.83072841 4.70107591 9.96875 7.7890625 C11.30383665 9.07119908 12.63976594 10.35245883 13.9765625 11.6328125 C14.61239258 12.24640625 15.24822266 12.86 15.90332031 13.4921875 C17.99667699 15.4887483 20.15101922 17.40248658 22.34375 19.2890625 C22.93414062 19.80339844 23.52453125 20.31773438 24.1328125 20.84765625 C25.49038797 22.02074069 26.85414843 23.18665872 28.21875 24.3515625 C29.65625 26.1640625 29.65625 26.1640625 29.40625 28.4140625 C29.15875 28.9915625 28.91125 29.5690625 28.65625 30.1640625 C26.61328125 30.57421875 26.61328125 30.57421875 23.65625 30.1640625 C20.95881653 28.24912635 18.68207289 25.93312978 16.34375 23.6015625 C15.01384118 22.31555736 13.68311914 21.03039264 12.3515625 19.74609375 C11.71637695 19.12686035 11.08119141 18.50762695 10.42675781 17.86962891 C7.28189946 14.8401225 3.98269817 11.99101207 0.65625 9.1640625 C-2.17544969 10.45947579 -4.29835718 11.84808319 -6.55078125 13.9921875 C-7.13794922 14.54519531 -7.72511719 15.09820312 -8.33007812 15.66796875 C-8.93271484 16.24417969 -9.53535156 16.82039063 -10.15625 17.4140625 C-13.76777423 20.84048134 -17.387115 24.25610494 -21.109375 27.5625 C-21.66012695 28.05411621 -22.21087891 28.54573242 -22.77832031 29.05224609 C-24.34375 30.1640625 -24.34375 30.1640625 -27.28125 30.5390625 C-27.961875 30.4153125 -28.6425 30.2915625 -29.34375 30.1640625 C-30.12109375 28.46484375 -30.12109375 28.46484375 -30.34375 26.1640625 C-28.53515625 23.83203125 -28.53515625 23.83203125 -25.90625 21.3515625 C-24.97941406 20.46984375 -24.05257813 19.588125 -23.09765625 18.6796875 C-20.23835302 16.06778497 -17.37486465 13.47372236 -14.41796875 10.97265625 C-12.83734073 9.59444387 -11.30660983 8.15878532 -9.80078125 6.69921875 C-8.92808594 5.86261719 -8.05539063 5.02601562 -7.15625 4.1640625 C-6.35832031 3.3803125 -5.56039063 2.5965625 -4.73828125 1.7890625 C-2.34375 0.1640625 -2.34375 0.1640625 0 0 Z " fill="#A5C1D8" transform="translate(32.34375,1.8359375)"/>
</svg>
