<svg width="23" height="24" viewBox="0 0 23 24" fill="none" xmlns="http://www.w3.org/2000/svg">
<path fill-rule="evenodd" clip-rule="evenodd" d="M18.8162 4.5355C16.9292 2.56425 14.4199 1.47819 11.7463 1.47705C6.23758 1.47705 1.75406 6.15513 1.75191 11.9051C1.75114 13.7432 2.21136 15.5373 3.08599 17.1189L1.66809 22.523L6.96625 21.0728C8.42602 21.9036 10.0696 22.3416 11.7423 22.3421H11.7464C11.7461 22.3421 11.7467 22.3421 11.7464 22.3421C17.2545 22.3421 21.7384 17.6636 21.7407 11.9135C21.7417 9.12684 20.7031 6.50667 18.8162 4.5355ZM11.7463 20.5809H11.743C10.2525 20.5803 8.79045 20.1624 7.51503 19.3726L7.21173 19.1848L4.06773 20.0454L4.90695 16.8467L4.70942 16.5187C3.87791 15.1387 3.43874 13.5436 3.43939 11.9057C3.44118 7.12655 7.16772 3.23841 11.7497 3.23841C13.9684 3.23913 16.0542 4.14197 17.6225 5.7804C19.1909 7.41882 20.0541 9.59666 20.0532 11.9128C20.0513 16.6923 16.3249 20.5809 11.7463 20.5809Z" fill="white"/>
<path fill-rule="evenodd" clip-rule="evenodd" d="M16.3028 14.0889C16.0531 13.9585 14.8253 13.3282 14.5965 13.2412C14.3676 13.1542 14.2011 13.1107 14.0346 13.3716C13.8682 13.6324 13.3896 14.2194 13.2439 14.3933C13.0982 14.5672 12.9525 14.589 12.7028 14.4585C12.4531 14.3281 11.6485 14.0529 10.6947 13.1652C9.95224 12.4742 9.45108 11.6209 9.30536 11.3599C9.15971 11.0991 9.28986 10.9581 9.4149 10.8282C9.52723 10.7114 9.66464 10.5238 9.78951 10.3716C9.91435 10.2195 9.95597 10.1107 10.0392 9.93695C10.1225 9.76301 10.0809 9.61082 10.0184 9.48043C9.95597 9.35 9.45656 8.06739 9.24848 7.54555C9.04571 7.03751 8.83987 7.10634 8.68655 7.09825C8.54111 7.09068 8.37441 7.08911 8.20796 7.08911C8.0415 7.08911 7.7709 7.15435 7.54205 7.41516C7.31316 7.67606 6.66798 8.30653 6.66798 9.58902C6.66798 10.8717 7.56282 12.1108 7.68769 12.2846C7.81253 12.4586 9.44861 15.0906 11.9537 16.2193C12.5495 16.4878 13.0147 16.6481 13.3773 16.7682C13.9755 16.9666 14.5199 16.9385 14.9502 16.8714C15.43 16.7966 16.4277 16.2411 16.6358 15.6325C16.8439 15.0237 16.8439 14.5019 16.7814 14.3933C16.719 14.2846 16.5526 14.2194 16.3028 14.0889Z" fill="white"/>
</svg>
